<svg width="70" height="70" viewBox="0 0 70 70" fill="none" xmlns="http://www.w3.org/2000/svg">
<rect y="34.3174" width="48.5321" height="49.8803" rx="15" transform="rotate(-45 0 34.3174)" fill="#00FFF0"/>
<path d="M48.3337 34C48.3337 26.64 42.3603 20.6666 35.0003 20.6666C27.6403 20.6666 21.667 26.64 21.667 34C21.667 40.4533 26.2537 45.8266 32.3337 47.0666V38H29.667V34H32.3337V30.6666C32.3337 28.0933 34.427 26 37.0003 26H40.3337V30H37.667C36.9337 30 36.3337 30.6 36.3337 31.3333V34H40.3337V38H36.3337V47.2666C43.067 46.6 48.3337 40.92 48.3337 34Z" fill="black"/>
</svg>
