<svg width="70" height="70" viewBox="0 0 70 70" fill="none" xmlns="http://www.w3.org/2000/svg">
<rect y="34.3174" width="48.5321" height="49.8803" rx="15" transform="rotate(-45 0 34.3174)" fill="#00FFF0"/>
<g clip-path="url(#clip0_743_546)">
<path d="M40.0662 27.0667H41.7995M28.7995 21.8667H39.1995C41.0384 21.8667 42.8019 22.5972 44.1022 23.8974C45.4024 25.1977 46.1329 26.9612 46.1329 28.8V39.2C46.1329 41.0389 45.4024 42.8024 44.1022 44.1026C42.8019 45.4029 41.0384 46.1334 39.1995 46.1334H28.7995C26.9607 46.1334 25.1972 45.4029 23.8969 44.1026C22.5967 42.8024 21.8662 41.0389 21.8662 39.2V28.8C21.8662 26.9612 22.5967 25.1977 23.8969 23.8974C25.1972 22.5972 26.9607 21.8667 28.7995 21.8667ZM33.9995 39.2C32.6204 39.2 31.2978 38.6522 30.3226 37.677C29.3474 36.7018 28.7995 35.3792 28.7995 34C28.7995 32.6209 29.3474 31.2983 30.3226 30.3231C31.2978 29.3479 32.6204 28.8 33.9995 28.8C35.3787 28.8 36.7013 29.3479 37.6765 30.3231C38.6517 31.2983 39.1995 32.6209 39.1995 34C39.1995 35.3792 38.6517 36.7018 37.6765 37.677C36.7013 38.6522 35.3787 39.2 33.9995 39.2Z" stroke="black" stroke-width="2"/>
</g>
<defs>
<clipPath id="clip0_743_546">
<rect width="26" height="26" fill="white" transform="translate(21 21)"/>
</clipPath>
</defs>
</svg>
