<svg width="278" height="82" viewBox="0 0 278 82" fill="none" xmlns="http://www.w3.org/2000/svg">
<path d="M109.954 49.296H97.902L95.97 55H87.736L99.42 22.708H108.528L120.212 55H111.886L109.954 49.296ZM107.93 43.224L103.928 31.402L99.972 43.224H107.93ZM131.634 29.01V35.542H142.168V41.614H131.634V48.698H143.548V55H123.768V22.708H143.548V29.01H131.634ZM160.339 55.322C157.977 55.322 155.861 54.9387 153.991 54.172C152.12 53.4053 150.617 52.2707 149.483 50.768C148.379 49.2653 147.796 47.456 147.735 45.34H156.107C156.229 46.536 156.643 47.456 157.349 48.1C158.054 48.7133 158.974 49.02 160.109 49.02C161.274 49.02 162.194 48.7593 162.869 48.238C163.543 47.686 163.881 46.9347 163.881 45.984C163.881 45.1867 163.605 44.5273 163.053 44.006C162.531 43.4847 161.872 43.0553 161.075 42.718C160.308 42.3807 159.204 41.9973 157.763 41.568C155.677 40.924 153.975 40.28 152.657 39.636C151.338 38.992 150.203 38.0413 149.253 36.784C148.302 35.5267 147.827 33.886 147.827 31.862C147.827 28.8567 148.915 26.5107 151.093 24.824C153.27 23.1067 156.107 22.248 159.603 22.248C163.16 22.248 166.027 23.1067 168.205 24.824C170.382 26.5107 171.547 28.872 171.701 31.908H163.191C163.129 30.8653 162.746 30.0527 162.041 29.47C161.335 28.8567 160.431 28.55 159.327 28.55C158.376 28.55 157.609 28.8107 157.027 29.332C156.444 29.8227 156.153 30.5433 156.153 31.494C156.153 32.5367 156.643 33.3493 157.625 33.932C158.606 34.5147 160.139 35.1433 162.225 35.818C164.31 36.5233 165.997 37.198 167.285 37.842C168.603 38.486 169.738 39.4213 170.689 40.648C171.639 41.8747 172.115 43.454 172.115 45.386C172.115 47.226 171.639 48.8973 170.689 50.4C169.769 51.9027 168.419 53.0987 166.641 53.988C164.862 54.8773 162.761 55.322 160.339 55.322ZM200.186 22.708V29.01H191.63V55H183.764V29.01H175.208V22.708H200.186ZM220.601 55L213.885 42.81H211.999V55H204.133V22.708H217.335C219.881 22.708 222.043 23.1527 223.821 24.042C225.631 24.9313 226.98 26.158 227.869 27.722C228.759 29.2553 229.203 30.9727 229.203 32.874C229.203 35.0207 228.59 36.9373 227.363 38.624C226.167 40.3107 224.389 41.5067 222.027 42.212L229.479 55H220.601ZM211.999 37.244H216.875C218.317 37.244 219.39 36.8913 220.095 36.186C220.831 35.4807 221.199 34.484 221.199 33.196C221.199 31.9693 220.831 31.0033 220.095 30.298C219.39 29.5927 218.317 29.24 216.875 29.24H211.999V37.244ZM242.007 22.708V55H234.141V22.708H242.007ZM267.487 55L260.909 45.11L255.113 55H246.189L256.539 38.578L245.959 22.708H255.113L261.599 32.46L267.303 22.708H276.227L265.969 38.992L276.641 55H267.487Z" fill="#00FFF0"/>
<path d="M7.0112 30.6419L39.0721 4L72.469 30.6419L39.0721 76L7.0112 30.6419ZM7.0112 30.6419C7.0112 30.6419 91.9999 42.5 75.4998 48M7.0112 30.6419L75.4998 48M7.0112 30.6419C7.0112 30.6419 32.4996 74.5 7.99975 56.5C-16.5001 38.5 75.4998 48 75.4998 48" stroke="#00FFF0" stroke-width="6"/>
</svg>
