<svg width="69" height="70" viewBox="0 0 69 70" fill="none" xmlns="http://www.w3.org/2000/svg">
<path d="M2.75781 2V2C9.12456 2 14.6082 6.48921 15.8655 12.7306L15.9428 13.1145M15.9428 13.1145L22.9728 48.0132C23.0668 48.48 23.4769 48.8157 23.9531 48.8157H57.9145C58.8475 48.8157 59.6566 48.1706 59.8643 47.261L66.5449 18.005C67.1167 15.5009 65.2138 13.1145 62.6453 13.1145H15.9428Z" stroke="#00FFF0" stroke-width="4" stroke-linejoin="round"/>
<path d="M59.8112 58.8144C60.9154 58.7874 61.7887 57.8703 61.7616 56.7661C61.7346 55.6618 60.8175 54.7886 59.7133 54.8156L59.8112 58.8144ZM21.8805 47.501C20.3745 49.227 19.3083 51.242 19.2505 53.2409C19.2206 54.2751 19.4648 55.3144 20.0759 56.2312C20.6848 57.1448 21.5732 57.8101 22.6263 58.2435L24.1487 54.5445C23.6982 54.3591 23.4982 54.1537 23.4043 54.0128C23.3125 53.875 23.2396 53.6761 23.2488 53.3564C23.2693 52.6476 23.7065 51.4923 24.8945 50.1308L21.8805 47.501ZM22.6263 58.2435C23.0528 58.419 23.5644 58.5154 23.9921 58.5802C24.4661 58.6519 25.0299 58.7111 25.6541 58.761C26.9052 58.8612 28.4952 58.932 30.2847 58.9812C33.869 59.0796 38.3478 59.0934 42.7138 59.0686C47.0837 59.0438 51.3575 58.9803 54.5376 58.9229C56.128 58.8943 57.4456 58.8672 58.3659 58.8472C58.8261 58.8372 59.187 58.829 59.4331 58.8233C59.5561 58.8205 59.6504 58.8183 59.7141 58.8168C59.7459 58.816 59.7701 58.8154 59.7863 58.815C59.7945 58.8148 59.8006 58.8147 59.8048 58.8146C59.8069 58.8145 59.8084 58.8145 59.8095 58.8145C59.81 58.8144 59.8104 58.8144 59.8107 58.8144C59.811 58.8144 59.8112 58.8144 59.7622 56.815C59.7133 54.8156 59.7132 54.8156 59.713 54.8156C59.7128 54.8156 59.7124 54.8156 59.7119 54.8156C59.711 54.8157 59.7095 54.8157 59.7075 54.8158C59.7036 54.8158 59.6976 54.816 59.6897 54.8162C59.6739 54.8166 59.6502 54.8171 59.6188 54.8179C59.556 54.8194 59.4625 54.8216 59.3404 54.8244C59.0962 54.8301 58.7373 54.8382 58.2792 54.8482C57.363 54.868 56.0503 54.895 54.4655 54.9236C51.2952 54.9807 47.039 55.044 42.6911 55.0687C38.3393 55.0933 33.9123 55.0792 30.3945 54.9827C28.6329 54.9343 27.1227 54.8659 25.9734 54.7738C25.3975 54.7277 24.9361 54.6775 24.5909 54.6252C24.1995 54.566 24.0981 54.5237 24.1487 54.5445L22.6263 58.2435Z" fill="#00FFF0"/>
<path d="M2 0C0.895431 0 0 0.895431 0 2C0 3.10457 0.895431 4 2 4V0ZM3.1321 0H2V4H3.1321V0Z" fill="#00FFF0"/>
<path d="M35.7012 63.972C35.7012 65.9754 34.0128 67.6977 31.8072 67.6977C29.6015 67.6977 27.9131 65.9754 27.9131 63.972C27.9131 61.9686 29.6015 60.2463 31.8072 60.2463C34.0128 60.2463 35.7012 61.9686 35.7012 63.972Z" stroke="#00FFF0" stroke-width="4"/>
<path d="M52.5416 63.972C52.5416 65.9754 50.8532 67.6977 48.6475 67.6977C46.4418 67.6977 44.7534 65.9754 44.7534 63.972C44.7534 61.9686 46.4418 60.2463 48.6475 60.2463C50.8532 60.2463 52.5416 61.9686 52.5416 63.972Z" stroke="#00FFF0" stroke-width="4"/>
</svg>
